<svg width="25" height="26" viewBox="0 0 25 26" fill="none" xmlns="http://www.w3.org/2000/svg">
<path fill-rule="evenodd" clip-rule="evenodd" d="M9.84629 0C6.15932 0 3.1987 3.04688 3.1987 6.8423C3.1987 10.6368 6.15972 13.6846 9.84629 13.6846C13.5337 13.6846 16.4939 10.6373 16.4939 6.8423C16.4939 3.04646 13.5341 0 9.84629 0ZM9.84629 1.92994C12.4986 1.92994 14.6189 4.11234 14.6189 6.8423C14.6189 9.57144 12.4981 11.7547 9.84629 11.7547C7.19527 11.7547 5.07372 9.57096 5.07372 6.8423C5.07372 4.11282 7.19481 1.92994 9.84629 1.92994ZM9.84639 16.0266C3.55879 16.0266 0 17.2547 0 20.7344C0 24.218 3.57458 25.4692 9.84639 25.4692L10.6508 25.4622C16.4352 25.3581 19.6928 24.089 19.6928 20.7614C19.6928 17.3536 16.2719 16.0821 10.2516 16.0284L9.84639 16.0266ZM9.84639 17.9566C15.0983 17.9566 17.8178 18.9085 17.8178 20.7614C17.8178 22.6029 15.105 23.5393 9.84639 23.5393C4.59448 23.5393 1.87503 22.5874 1.87503 20.7344C1.87503 18.942 4.44177 18.0078 9.42549 17.9586L9.84639 17.9566ZM21.5048 7.61582C21.9794 7.61582 22.3717 7.97884 22.4338 8.44985L22.4423 8.58079V10.1954H24.0625C24.5803 10.1954 25 10.6274 25 11.1603C25 11.6489 24.6473 12.0526 24.1897 12.1165L24.0625 12.1253H22.4423V13.7402C22.4423 14.2731 22.0226 14.7051 21.5048 14.7051C21.0302 14.7051 20.6379 14.3421 20.5758 13.8711L20.5673 13.7402V12.1253H18.9499C18.4321 12.1253 18.0124 11.6933 18.0124 11.1603C18.0124 10.6718 18.3651 10.2681 18.8227 10.2042L18.9499 10.1954H20.5673V8.58079C20.5673 8.04785 20.987 7.61582 21.5048 7.61582Z" fill="#333333"/>
</svg>
