<svg width="25" height="26" viewBox="0 0 25 26" fill="none" xmlns="http://www.w3.org/2000/svg">
<path fill-rule="evenodd" clip-rule="evenodd" d="M1.09752 0.0142937L0.970713 0.000643238C0.509242 -0.0167208 0.0948281 0.319182 0.013887 0.800539L0.000624934 0.93106C-0.016245 1.40605 0.310099 1.8326 0.777759 1.91591L2.66399 2.25169L3.80713 16.2701L3.83079 16.4807C4.06079 18.0793 5.39658 19.281 6.98755 19.281H20.6274L20.8328 19.2743C22.3282 19.176 23.5681 18.012 23.7863 16.4657L24.9726 8.02774L24.9931 7.83392C25.1023 6.2912 23.9149 4.95225 22.3861 4.95225H4.76521L4.4718 1.34756L4.44969 1.20494C4.36414 0.833989 4.07116 0.544037 3.69748 0.477467L1.09752 0.0142937ZM6.84245 17.343C6.22337 17.2732 5.72827 16.7615 5.67539 16.1091L4.92253 6.88214H22.3859L22.4961 6.89048C22.8908 6.95087 23.1759 7.33077 23.1168 7.75142L21.9306 16.1888L21.9008 16.3397C21.7504 16.9297 21.2311 17.3511 20.6272 17.3511H6.98737L6.84245 17.343ZM4.8855 23.2686C4.8855 22.1928 5.73258 21.3194 6.77797 21.3194C7.82323 21.3194 8.6717 22.1927 8.6717 23.2686C8.6717 24.3446 7.82309 25.2165 6.77797 25.2165C5.73272 25.2165 4.8855 24.3444 4.8855 23.2686ZM18.9497 23.2686C18.9497 22.1927 19.7982 21.3194 20.8434 21.3194C21.8887 21.3194 22.7371 22.1927 22.7371 23.2686C22.7371 24.3446 21.8885 25.2165 20.8434 25.2165C19.7983 25.2165 18.9497 24.3446 18.9497 23.2686ZM19.5603 10.6724C19.5603 10.1395 19.1406 9.70749 18.6229 9.70749H15.1567L15.0294 9.7163C14.5719 9.78019 14.2192 10.1839 14.2192 10.6724C14.2192 11.2054 14.6389 11.6374 15.1567 11.6374H18.6229L18.7501 11.6286C19.2077 11.5647 19.5603 11.1609 19.5603 10.6724Z" fill="#333333"/>
</svg>
