<svg width="7" height="12" viewBox="0 0 7 12" fill="none" xmlns="http://www.w3.org/2000/svg">
<path d="M6.25 1.50001C6.25034 1.67525 6.18931 1.84508 6.0775 1.98001L2.7175 6.00001L5.9575 10.0275C6.0198 10.1042 6.06632 10.1925 6.0944 10.2873C6.12247 10.382 6.13154 10.4814 6.12109 10.5796C6.11063 10.6779 6.08086 10.7732 6.03348 10.8599C5.9861 10.9466 5.92205 11.0231 5.845 11.085C5.76828 11.1473 5.68001 11.1938 5.58526 11.2219C5.4905 11.25 5.39113 11.2591 5.29286 11.2486C5.19459 11.2381 5.09935 11.2084 5.01263 11.161C4.9259 11.1136 4.84939 11.0496 4.7875 10.9725L1.165 6.47251C1.05469 6.33831 0.994385 6.16998 0.994385 5.99626C0.994385 5.82254 1.05469 5.65421 1.165 5.52001L4.915 1.02001C4.97796 0.944068 5.05529 0.88129 5.14255 0.835276C5.22981 0.789262 5.32529 0.760914 5.42352 0.751857C5.52175 0.7428 5.62081 0.753213 5.71501 0.782496C5.80921 0.81178 5.89671 0.859359 5.9725 0.92251C6.05853 0.992301 6.12804 1.08028 6.17602 1.18014C6.224 1.27999 6.24927 1.38923 6.25 1.50001Z" fill="#3FCF5E"/>
</svg>
